<mxfile host="app.diagrams.net" modified="2022-11-18T15:00:57.497Z" agent="5.0 (Windows NT 10.0; Win64; x64) AppleWebKit/537.36 (KHTML, like Gecko) Chrome/107.0.0.0 Safari/537.36" etag="Lf4n-PYfR9TY690MMUxt" version="20.5.3" type="github">
  <diagram id="R2lEEEUBdFMjLlhIrx00" name="Page-1">
    <mxGraphModel dx="1997" dy="1229" grid="0" gridSize="10" guides="1" tooltips="1" connect="1" arrows="1" fold="1" page="0" pageScale="1" pageWidth="850" pageHeight="1100" math="0" shadow="0" extFonts="Permanent Marker^https://fonts.googleapis.com/css?family=Permanent+Marker">
      <root>
        <mxCell id="0" />
        <mxCell id="1" parent="0" />
        <mxCell id="dvNhInwKcY32z-tbkgkB-58" value="&lt;p style=&quot;margin:0px;margin-top:6px;text-align:center;&quot;&gt;&lt;b&gt;Index pattern&lt;/b&gt;&lt;/p&gt;&lt;hr&gt;&lt;p style=&quot;margin:0px;margin-left:8px;&quot;&gt;&lt;br&gt;&lt;/p&gt;" style="align=left;overflow=fill;html=1;dropTarget=0;" vertex="1" parent="1">
          <mxGeometry x="-137" y="-132" width="231" height="927" as="geometry" />
        </mxCell>
        <mxCell id="dvNhInwKcY32z-tbkgkB-60" value=".monitoring*  &lt;str&gt;&#xa;.siem*  &lt;str&gt;&#xa;.siem-signals-*  &lt;str&gt;&#xa;.watcher*  &lt;str&gt;&#xa;allother  &lt;str&gt;&#xa;.allother*  &lt;str&gt;&#xa;antispam-*  &lt;str&gt;&#xa;apm-*  &lt;str&gt;&#xa;aruba_nac*  &lt;str&gt;&#xa;brilink*  &lt;str&gt;&#xa;brizzi*  &lt;str&gt;&#xa;capam*  &lt;str&gt;&#xa;cisco_ise*  &lt;str&gt;&#xa;cygnet*  &lt;str&gt;&#xa;db_mcafee*  &lt;str&gt;&#xa;db_nms  &lt;str&gt;&#xa;digital_saving*  &lt;str&gt;&#xa;endgame*  &lt;str&gt;&#xa;eset*  &lt;str&gt;&#xa;extrahop*  &lt;str&gt;&#xa;f5urgent  &lt;str&gt;&#xa;fds_direct_debit*  &lt;str&gt;&#xa;forti_crow*  &lt;str&gt;&#xa;forti_other*  &lt;str&gt;&#xa;ftp*  &lt;str&gt;&#xa;grok_fail*  &lt;str&gt;&#xa;ib*  &lt;str&gt;&#xa;imperva*  &lt;str&gt;&#xa;infoblox1*  &lt;str&gt;&#xa;infoblox_new*  &lt;str&gt;&#xa;juniper_srx*  &lt;str&gt;&#xa;kaseya-*  &lt;str&gt;&#xa;kibana-log*  &lt;str&gt;&#xa;kibana-log-*  &lt;str&gt;&#xa;kibana-log-2021*  &lt;str&gt;&#xa;kibana-log-2021.03.23*  &lt;str&gt;&#xa;mcafee  &lt;str&gt;&#xa;mcafee_dlp*  &lt;str&gt;&#xa;mcafee_edr*  &lt;str&gt;&#xa;mcafee_ips*  &lt;str&gt;&#xa;metricbeat-*  &lt;str&gt;&#xa;networks*  &lt;str&gt;&#xa;nexpose*  &lt;str&gt;&#xa;node_status*  &lt;str&gt;&#xa;panw*  &lt;str&gt;&#xa;poc_system_kartu_kredit1*  &lt;str&gt;&#xa;poc_system_kartu_kredit2*  &lt;str&gt;&#xa;poc_system_kartu_kredit3*  &lt;str&gt;&#xa;registration*  &lt;str&gt;&#xa;sessions2-*  &lt;str&gt;&#xa;squid*  &lt;str&gt;&#xa;suricata_new*  &lt;str&gt;&#xa;tds*  &lt;str&gt;&#xa;test_beat*  &lt;str&gt;&#xa;thor-*  &lt;str&gt;&#xa;trend_index*  &lt;str&gt;&#xa;trendmicro_edr*  &lt;str&gt;&#xa;virus*  &lt;str&gt;&#xa;vmware*  &lt;str&gt;&#xa;waf*  &lt;str&gt;&#xa;waf-2021*  &lt;str&gt;&#xa;wazuh*  &lt;str&gt;&#xa;winlogbeat*  &lt;str&gt;&#xa;" style="text;strokeColor=none;fillColor=none;align=left;verticalAlign=top;spacingLeft=4;spacingRight=4;overflow=hidden;rotatable=0;points=[[0,0.5],[1,0.5]];portConstraint=eastwest;" vertex="1" parent="1">
          <mxGeometry x="-137" y="-106" width="231" height="900" as="geometry" />
        </mxCell>
        <mxCell id="dvNhInwKcY32z-tbkgkB-67" value="&lt;p style=&quot;margin:0px;margin-top:4px;text-align:center;&quot;&gt;&lt;b&gt;*monitoring&lt;/b&gt;&lt;/p&gt;&lt;hr size=&quot;1&quot;&gt;&lt;div style=&quot;height:2px;&quot;&gt;&lt;/div&gt;" style="verticalAlign=top;align=left;overflow=fill;fontSize=12;fontFamily=Helvetica;html=1;" vertex="1" parent="1">
          <mxGeometry x="425" y="-117" width="207" height="101" as="geometry" />
        </mxCell>
        <mxCell id="dvNhInwKcY32z-tbkgkB-78" style="edgeStyle=orthogonalEdgeStyle;rounded=0;orthogonalLoop=1;jettySize=auto;html=1;entryX=0;entryY=0.5;entryDx=0;entryDy=0;" edge="1" parent="1" source="dvNhInwKcY32z-tbkgkB-70" target="dvNhInwKcY32z-tbkgkB-67">
          <mxGeometry relative="1" as="geometry">
            <Array as="points">
              <mxPoint x="200" y="332" />
              <mxPoint x="200" y="-66" />
            </Array>
          </mxGeometry>
        </mxCell>
        <mxCell id="dvNhInwKcY32z-tbkgkB-70" value="" style="line;strokeWidth=1;rotatable=0;dashed=0;labelPosition=right;align=left;verticalAlign=middle;spacingTop=0;spacingLeft=6;points=[];portConstraint=eastwest;" vertex="1" parent="1">
          <mxGeometry x="94" y="326.5" width="76" height="10" as="geometry" />
        </mxCell>
        <mxCell id="dvNhInwKcY32z-tbkgkB-79" style="edgeStyle=orthogonalEdgeStyle;rounded=0;orthogonalLoop=1;jettySize=auto;html=1;exitX=0.5;exitY=1;exitDx=0;exitDy=0;" edge="1" parent="1" source="dvNhInwKcY32z-tbkgkB-67" target="dvNhInwKcY32z-tbkgkB-67">
          <mxGeometry relative="1" as="geometry" />
        </mxCell>
      </root>
    </mxGraphModel>
  </diagram>
</mxfile>
